<?xml version="1.0" standalone="no"?><!DOCTYPE svg PUBLIC "-//W3C//DTD SVG 1.1//EN" "http://www.w3.org/Graphics/SVG/1.1/DTD/svg11.dtd"><svg t="1681075790221" class="icon" viewBox="0 0 1024 1024" version="1.1" xmlns="http://www.w3.org/2000/svg" p-id="20924" xmlns:xlink="http://www.w3.org/1999/xlink" width="200" height="200"><path d="M774.485333 538.197333h-175.573333a26.24 26.24 0 0 1-26.154667-26.24c0-14.464 11.690667-22.272 26.154667-22.314666h175.573333c14.506667 0 29.909333-15.701333 29.909334-30.208V249.429333c0-14.506667-15.445333-29.44-29.909334-29.44H249.429333c-14.506667 0-30.208 14.933333-30.208 29.44v210.005334c0 14.506667 15.701333 30.208 30.208 30.208h27.093334c14.421333 0.042667 26.112 7.850667 26.112 22.314666a26.24 26.24 0 0 1-26.112 26.24h-27.093334A78.848 78.848 0 0 1 170.666667 459.434667V249.429333C170.666667 205.994667 205.994667 170.666667 249.429333 170.666667h525.056c43.392 0 78.762667 35.328 78.762667 78.762666v210.005334a78.848 78.848 0 0 1-78.762667 78.762666zM392.96 853.248a26.24 26.24 0 0 1-26.112-26.282667c0-14.421333 11.690667-19.072 26.112-19.157333h317.525333c10.666667 0 27.178667-19.114667 27.178667-33.322667V669.44c0-14.250667-16.554667-32.341333-27.178667-32.341333h-216.618666c-14.421333-0.042667 11.818667-5.717333 11.818666-20.181334 0-14.464-26.24-26.197333-11.818666-26.24h216.618666c39.765333 0 72.192 35.328 72.192 78.762667v104.96c0 43.434667-32.426667 78.805333-72.192 78.805333H392.96z" fill="#515151" p-id="20925"></path><path d="M362.624 666.026667v-232.576c0-42.88 35.328-77.824 78.762667-77.824 43.434667 0 78.762667 34.944 78.762666 77.824v178.304a26.282667 26.282667 0 0 1-26.282666 26.154666c-14.421333 0-19.712-11.733333-19.797334-26.154666v-178.304c0-13.952-18.176-29.141333-32.682666-29.141334s-33.706667 15.189333-33.706667 29.141334v232.533333c0 4.608-0.042667 10.794667-0.213333 18.56-7.765333 5.12-13.952 7.68-18.602667 7.68a26.24 26.24 0 0 1-26.24-26.24z" fill="#515151" p-id="20926"></path><path d="M388.864 853.248a26.24 26.24 0 0 1-19.2-8.362667l-124.544-133.802666c-29.738667-29.653333-29.44-79.36 1.28-110.08a78.421333 78.421333 0 0 1 110.72-0.682667l41.088 47.104c9.941333 10.282667 0 35.242667 0 36.778667 0 1.536-20.053333 8.405333-30.293333-1.536L320 637.482667c-10.24-9.813333-29.44-14.293333-39.381333-4.138667-10.24 9.941333-9.856 35.242667 0 45.525333l125.141333 130.261334c7.082667 7.68 11.264 18.773333 7.125333 28.330666a26.24 26.24 0 0 1-24.064 15.786667z" fill="#515151" p-id="20927"></path></svg>