<?xml version="1.0" standalone="no"?><!DOCTYPE svg PUBLIC "-//W3C//DTD SVG 1.1//EN" "http://www.w3.org/Graphics/SVG/1.1/DTD/svg11.dtd"><svg t="1681075975154" class="icon" viewBox="0 0 1024 1024" version="1.1" xmlns="http://www.w3.org/2000/svg" p-id="24546" xmlns:xlink="http://www.w3.org/1999/xlink" width="200" height="200"><path d="M199.111111 398.222222m28.444445 0l341.333333 0q28.444444 0 28.444444 28.444445l0 170.666666q0 28.444444-28.444444 28.444445l-341.333333 0q-28.444444 0-28.444445-28.444445l0-170.666666q0-28.444444 28.444445-28.444445Z" p-id="24547"></path><path d="M824.888889 312.888889H199.111111a85.333333 85.333333 0 0 0-85.333333 85.333333v227.555556a85.333333 85.333333 0 0 0 85.333333 85.333333h625.777778a85.333333 85.333333 0 0 0 85.333333-85.333333v-227.555556a85.333333 85.333333 0 0 0-85.333333-85.333333z m28.444444 298.666667a42.666667 42.666667 0 0 1-42.666666 42.666666h-597.333334A42.666667 42.666667 0 0 1 170.666667 611.555556v-199.111112A42.666667 42.666667 0 0 1 213.333333 369.777778h597.333334a42.666667 42.666667 0 0 1 42.666666 42.666666z" p-id="24548"></path></svg>