<?xml version="1.0" ?>
<!-- Uploaded to: SVG Repo, www.svgrepo.com, Generator: SVG Repo Mixer Tools -->
<svg width="800px" height="800px" viewBox="0 0 64 64" id="Layer_1" version="1.1" xml:space="preserve" xmlns="http://www.w3.org/2000/svg" xmlns:xlink="http://www.w3.org/1999/xlink">
<style type="text/css">
	.st0{fill:#5C6373;}
	.st1{fill:#7D828C;}
	.st2{fill:#A4A5A6;}
</style>
<g id="Layer_5">
<path class="st0" d="M56,10h4c1.1,0,2,0.9,2,2v20l0,0h-8l0,0V12C54,10.9,54.9,10,56,10z"/>
<path class="st0" d="M59,7h-2V4H47v3h-2V3c0-0.6,0.4-1,1-1h12c0.6,0,1,0.4,1,1V7z"/>
<polyline class="st0" points="10,32 6,32 6,42 10,42  "/>
<path class="st1" d="M44,10V8c0-1.1,0.9-2,2-2l0,0c1.1,0,2,0.9,2,2v2"/>
<path class="st1" d="M56,10V8c0-1.1,0.9-2,2-2l0,0c1.1,0,2,0.9,2,2v2"/>
<path class="st2" d="M20,22h32c5.5,0,10,4.5,10,10v10c0,5.5-4.5,10-10,10H20c-5.5,0-10-4.5-10-10V32C10,26.5,14.5,22,20,22z"/>
<rect class="st1" height="30" width="4" x="2" y="32"/>
<rect class="st0" height="2" width="4" x="2" y="57"/>
<path class="st0" d="M44,10h4c1.1,0,2,0.9,2,2v10l0,0h-8l0,0V12C42,10.9,42.9,10,44,10z"/>
<rect class="st1" height="20" width="4" x="34" y="2"/>
<rect class="st0" height="4" width="4" x="34" y="2"/>
<rect class="st1" height="20" width="4" x="2" y="2"/>
<rect class="st0" height="4" width="4" x="2" y="2"/>
<rect class="st0" height="2" width="28" x="6" y="4"/>
<rect class="st0" height="2" width="28" x="6" y="9"/>
<rect class="st0" height="2" width="28" x="6" y="14"/>
<rect class="st0" height="2" width="28" x="6" y="19"/>
<rect class="st0" height="30" width="2" x="33" y="22"/>
<rect class="st0" height="30" width="2" x="25" y="22"/>
<rect class="st0" height="2" width="8" x="26" y="31"/>
<rect class="st0" height="2" width="8" x="26" y="27"/>
<rect class="st0" height="2" width="8" x="26" y="35"/>
<rect class="st0" height="2" width="8" x="26" y="39"/>
<rect class="st0" height="2" width="8" x="26" y="43"/>
<rect class="st0" height="2" width="8" x="26" y="47"/>
<path class="st1" d="M59,38h-2v-6c0-2.8-2.2-5-5-5v-2c3.9,0,7,3.1,7,7V38z"/>
<rect class="st0" height="6" width="4" x="19" y="52"/>
<rect class="st0" height="6" width="4" x="49" y="52"/>
<rect class="st1" height="2" width="8" x="42" y="13"/>
<rect class="st1" height="2" width="8" x="54" y="13"/>
<rect class="st0" height="2" width="4" x="2" y="35"/>
<rect class="st1" height="4" width="42" x="15" y="58"/>
</g>
</svg>