<?xml version="1.0" encoding="iso-8859-1"?>
<!-- Uploaded to: SVG Repo, www.svgrepo.com, Generator: SVG Repo Mixer Tools -->
<svg fill="#000000" height="800px" width="800px" version="1.1" id="Layer_1" xmlns="http://www.w3.org/2000/svg" xmlns:xlink="http://www.w3.org/1999/xlink" 
	 viewBox="0 0 512 512" xml:space="preserve">
<g>
	<g>
		<path d="M441.765,88.405l-42.667-51.209c-1.621-1.946-4.028-3.072-6.562-3.072h-8.533V8.533c0-4.71-3.814-8.533-8.533-8.533
			H256.003c-4.719,0-8.533,3.823-8.533,8.533V102.4H136.536c-4.719,0-8.533,3.823-8.533,8.533v25.6h-8.533
			c-2.534,0-4.932,1.126-6.562,3.072l-42.667,51.2c-2.116,2.543-2.577,6.084-1.169,9.079c1.408,2.995,4.42,4.915,7.731,4.915h25.6
			c0,18.825,15.309,34.133,34.133,34.133s34.125-15.309,34.133-34.125h25.6c3.311,0,6.323-1.92,7.723-4.915
			c1.408-3.004,0.947-6.536-1.169-9.079l-42.667-51.209c-1.621-1.946-4.019-3.072-6.554-3.072h-8.533v-17.067h102.4v324.429
			c-38.46,1.382-76.8,12.134-76.8,33.971c0,23.45,44.237,34.133,85.333,34.133s85.333-10.684,85.333-34.133
			c0-21.828-38.34-32.589-76.8-33.971V17.067h102.4v17.058h-8.533c-2.534,0-4.932,1.126-6.562,3.072l-42.667,51.2
			c-2.116,2.543-2.577,6.084-1.169,9.079c1.399,2.995,4.42,4.915,7.723,4.915h25.6l0.009,0.009
			c0,18.825,15.309,34.133,34.133,34.133s34.133-15.309,34.133-34.133h25.6c3.311,0,6.323-1.92,7.723-4.915
			C444.334,94.49,443.881,90.948,441.765,88.405z M136.536,221.867c-9.404,0-17.067-7.654-17.067-17.067h34.133
			C153.603,214.212,145.94,221.867,136.536,221.867z M149.601,153.6l28.45,34.142l-83.029-0.009l28.45-34.133H149.601z
			 M324.27,477.867c0,4.386-23.475,17.067-68.267,17.067c-44.791,0-68.267-12.681-68.267-17.067
			c0-4.096,20.506-15.428,59.733-16.905v8.371c0,4.71,3.814,8.533,8.533,8.533s8.533-3.823,8.533-8.533v-8.371
			C303.764,462.438,324.27,473.771,324.27,477.867z M375.47,119.467c-9.412,0-17.067-7.654-17.067-17.067c0,0,0,0,0-0.009
			l34.133,0.009C392.536,111.812,384.882,119.467,375.47,119.467z M333.955,85.325l28.45-34.133h26.138l28.442,34.142
			L333.955,85.325z"/>
	</g>
</g>
</svg>