<?xml version="1.0" ?><!-- Uploaded to: SVG Repo, www.svgrepo.com, Generator: SVG Repo Mixer Tools -->
<svg width="800px" height="800px" viewBox="0 0 28 28" fill="none" xmlns="http://www.w3.org/2000/svg"><path d="M9 5.64694C9 4.91807 8.24641 4.44108 7.62908 4.82858C4.24781 6.951 2 10.7128 2 14.9996C2 21.627 7.37258 26.9996 14 26.9996C20.6274 26.9996 26 21.627 26 14.9996C26 10.7128 23.7522 6.951 20.3709 4.82858C19.7536 4.44108 19 4.91807 19 5.64694V5.76063C19 6.11759 19.1925 6.44425 19.4907 6.6405C22.207 8.42834 24 11.5046 24 14.9996C24 20.5224 19.5228 24.9996 14 24.9996C8.47715 24.9996 4 20.5224 4 14.9996C4 11.5046 5.79297 8.42834 8.50928 6.6405C8.80746 6.44425 9 6.11759 9 5.76063V5.64694Z" fill="#000000"/><path d="M13 2C13 1.44772 13.4477 1 14 1C14.5523 1 15 1.44772 15 2V9C15 9.55228 14.5523 10 14 10C13.4477 10 13 9.55228 13 9V2Z" fill="#000000"/></svg>