<?xml version="1.0" standalone="no"?><!DOCTYPE svg PUBLIC "-//W3C//DTD SVG 1.1//EN" "http://www.w3.org/Graphics/SVG/1.1/DTD/svg11.dtd"><svg t="1685081062446" class="icon" viewBox="0 0 1024 1024" version="1.1" xmlns="http://www.w3.org/2000/svg" p-id="67414" xmlns:xlink="http://www.w3.org/1999/xlink" width="200" height="200"><path d="M920.8 1020H103.2c-8.8 0-16-7.2-16-16V20c0-8.8 7.2-16 16-16H920c8.8 0 16 7.2 16 16v984c0.8 8.8-6.4 16-15.2 16z m-801.6-32H904V36H119.2v952z" fill="#303C42" p-id="67415"></path><path d="M836.8 543.2H621.6c-4 0-8-3.2-8-8-0.8-28.8-14.4-56-36.8-74.4-5.6-4.8-12.8-9.6-20-12.8-28.8-14.4-62.4-14.4-90.4 0-7.2 4-14.4 8-20 12.8-22.4 18.4-35.2 45.6-36.8 74.4 0 4-4 8-8 8H187.2c-4.8 0-8-3.2-8-8v-432c0-4.8 3.2-8 8-8h650.4c4.8 0 8 3.2 8 8v432c-0.8 4.8-4 8-8.8 8z m-207.2-16h200v-416H195.2v416h200c3.2-30.4 18.4-58.4 41.6-78.4 7.2-5.6 14.4-10.4 23.2-15.2 32.8-16.8 72-16.8 104.8 0 8.8 4 16 9.6 23.2 15.2 23.2 20 38.4 48 41.6 78.4zM512 911.2c-84 0-152.8-68.8-152.8-152.8S428 605.6 512 605.6s152.8 68.8 152.8 152.8-68.8 152.8-152.8 152.8z m0-289.6c-75.2 0-136.8 61.6-136.8 136.8 0 75.2 61.6 136.8 136.8 136.8 75.2 0 136.8-61.6 136.8-136.8 0-75.2-61.6-136.8-136.8-136.8z" fill="#303C42" p-id="67416"></path><path d="M780 437.6c-4.8 0-8-3.2-8-8 0-143.2-116.8-260-260-260S252 286.4 252 429.6c0 4.8-3.2 8-8 8s-8-3.2-8-8c0-152 124-276 276-276s276 124 276 276c0 4.8-4 8-8 8z" fill="#303C42" p-id="67417"></path><path d="M621.6 543.2H402.4c-2.4 0-4-0.8-5.6-2.4-1.6-1.6-2.4-4-2.4-5.6 1.6-33.6 16.8-64.8 42.4-85.6 7.2-5.6 14.4-10.4 23.2-15.2 32.8-16.8 72-16.8 104.8 0 8.8 4 16 9.6 23.2 15.2 25.6 21.6 40.8 52.8 42.4 85.6 0 2.4-0.8 4-2.4 5.6-1.6 1.6-4 2.4-6.4 2.4z m-211.2-16h202.4c-3.2-25.6-16-49.6-36-65.6-5.6-4.8-12.8-9.6-20-12.8-28.8-14.4-62.4-14.4-90.4 0-7.2 4-14.4 8-20 12.8-20 16.8-32.8 40-36 65.6z" fill="#303C42" p-id="67418"></path><path d="M512 437.6c-4.8 0-8-3.2-8-8V282.4c0-4.8 3.2-8 8-8s8 3.2 8 8v147.2c0 4.8-3.2 8-8 8z" fill="#303C42" p-id="67419"></path></svg>