<?xml version="1.0" encoding="utf-8"?><!-- Uploaded to: SVG Repo, www.svgrepo.com, Generator: SVG Repo Mixer Tools -->
<svg width="800px" height="800px" viewBox="0 0 24 24" id="Layer_1" data-name="Layer 1" xmlns="http://www.w3.org/2000/svg"><defs><style>.cls-1{fill:none;stroke:#020202;stroke-miterlimit:10;stroke-width:1.91px;}</style></defs><path class="cls-1" d="M1.5,6.27H11a0,0,0,0,1,0,0V11a2.86,2.86,0,0,1-2.86,2.86H4.36A2.86,2.86,0,0,1,1.5,11V6.27A0,0,0,0,1,1.5,6.27Z"/><line class="cls-1" x1="3.41" y1="0.55" x2="3.41" y2="6.27"/><line class="cls-1" x1="9.14" y1="0.55" x2="9.14" y2="6.27"/><path class="cls-1" d="M4.36,13.91H8.18a0,0,0,0,1,0,0v1.91a1.91,1.91,0,0,1-1.91,1.91h0a1.91,1.91,0,0,1-1.91-1.91V13.91A0,0,0,0,1,4.36,13.91Z"/><path class="cls-1" d="M6.27,17.73v.47a4.3,4.3,0,0,0,4.3,4.3h0a4.29,4.29,0,0,0,4.29-4.3V10.09a3.82,3.82,0,0,1,3.82-3.82h0a3.82,3.82,0,0,1,3.82,3.82V23.45"/></svg>