<?xml version="1.0" encoding="iso-8859-1"?>
<!-- Uploaded to: SVG Repo, www.svgrepo.com, Generator: SVG Repo Mixer Tools -->
<svg fill="#000000" height="800px" width="800px" version="1.1" id="Layer_1" xmlns="http://www.w3.org/2000/svg" xmlns:xlink="http://www.w3.org/1999/xlink" 
	 viewBox="0 0 512 512" xml:space="preserve">
<g>
	<g>
		<path d="M469.802,51.203h-9.005V16.597C460.797,7.43,453.367,0,444.199,0h-86.263c-9.166,0-16.606,7.429-16.606,16.597v34.605h-9
			c-9.167,0-16.597,7.43-16.597,16.597v35.063c0,9.166,7.429,16.606,16.597,16.606h7.373c-8.044,43.945-46.453,76.797-92.24,76.797
			h-51.199v-59.733h15.935c10.048,0,18.202-8.149,18.202-18.202V86.468c0-10.053-8.154-18.202-18.202-18.202h-15.933V18.202
			C196.266,8.147,188.119,0,178.064,0H77.934C67.879,0,59.732,8.147,59.732,18.202v50.065h-15.93
			c-10.055,0-18.202,8.147-18.202,18.202v31.863c0,10.055,8.147,18.202,18.202,18.202h15.928v238.933H43.802
			c-10.055,0-18.202,8.147-18.202,18.202v31.863c0,10.055,8.147,18.202,18.202,18.202h15.932v50.065
			c0,10.055,8.147,18.202,18.202,18.202h100.13c10.048,0,18.202-8.149,18.202-18.202v-50.065h15.932
			c10.048,0,18.202-8.149,18.202-18.202v-31.863c0-10.053-8.154-18.202-18.202-18.202h-15.935v-59.733h51.199
			c111.833,0,203.899-86.039,212.606-196.264h9.732c9.168,0,16.597-7.44,16.597-16.606V67.8
			C486.399,58.633,478.969,51.203,469.802,51.203z M358.397,17.067h85.333V51.2h-85.333V17.067z M76.799,18.202
			c0-0.629,0.506-1.135,1.135-1.135h100.13c0.629,0,1.135,0.506,1.135,1.135v50.065h-102.4V18.202z M42.668,118.332V86.468
			c0-0.629,0.506-1.135,1.135-1.135h24.463h119.467h24.467c0.625,0,1.135,0.51,1.135,1.135v31.863c0,0.625-0.51,1.135-1.135,1.135
			h-24.469H68.264H43.802C43.173,119.467,42.668,118.961,42.668,118.332z M179.201,493.798c0,0.625-0.51,1.135-1.135,1.135H77.936
			c-0.629,0-1.135-0.506-1.135-1.135v-50.065h102.4V493.798z M213.334,393.668v31.863c0,0.625-0.51,1.135-1.135,1.135h-24.465
			H68.268H43.802c-0.629,0-1.135-0.506-1.135-1.135v-31.863c0-0.629,0.506-1.135,1.135-1.135h24.462h119.467h24.469
			C212.824,392.533,213.334,393.043,213.334,393.668z M179.197,375.467h-102.4V136.533h102.4v59.733h-0.001v119.467h0.001V375.467z
			 M247.463,298.667h-51.199v-85.333h51.199c55.183,0,101.311-40.377,109.552-93.864h85.945
			C434.31,220.222,349.896,298.667,247.463,298.667z M469.333,102.403h-8.393l0-0.003H341.579l0,0.003h-8.78V68.269h136.533V102.403
			z"/>
	</g>
</g>
</svg>