<?xml version="1.0" encoding="iso-8859-1"?>
<!-- Uploaded to: SVG Repo, www.svgrepo.com, Generator: SVG Repo Mixer Tools -->
<svg fill="#000000" height="800px" width="800px" version="1.1" id="Layer_1" xmlns="http://www.w3.org/2000/svg" xmlns:xlink="http://www.w3.org/1999/xlink" 
	 viewBox="0 0 503.607 503.607" xml:space="preserve">
<g>
	<g>
		<path d="M485.703,335.737h-49.244v-15.671c0-9.89-8.013-17.903-17.903-17.903h-31.341c-9.89,0-17.903,8.013-17.903,17.903v15.672
			h-58.756v-58.754h24.067c9.883,0,17.903-8.015,17.903-17.903V227.74c0-9.888-8.02-17.903-17.903-17.903h-24.067v-73.556
			l24.296-48.592c2.79-5.581-1.268-12.147-7.507-12.147h-67.148v-25.18h100.721c13.868,0,25.18-11.312,25.18-25.18
			s-11.312-25.18-25.18-25.18h-218.23c-13.868,0-25.18,11.312-25.18,25.18s11.312,25.18,25.18,25.18H243.41v25.18h-67.148
			c-6.24,0-10.298,6.566-7.507,12.147l24.293,48.585v73.563h-24.061c-9.89,0-17.903,8.013-17.903,17.903v31.341
			c0,9.89,8.013,17.903,17.903,17.903h24.061v58.754h-58.752v-15.672c0-9.89-8.013-17.903-17.903-17.903H85.051
			c-9.89,0-17.903,8.013-17.903,17.903v15.672H17.903C8.013,335.738,0,343.752,0,353.642v98.489c0,9.89,8.013,17.903,17.903,17.903
			h49.244v15.669c0,9.89,8.013,17.903,17.903,17.903h31.341c9.89,0,17.903-8.013,17.903-17.903v-15.669h235.016v15.669
			c0,9.89,8.013,17.903,17.903,17.903h31.341c9.89,0,17.903-8.013,17.903-17.903v-15.671h49.244c9.89,0,17.903-8.013,17.903-17.903
			V353.64C503.607,343.75,495.593,335.737,485.703,335.737z M134.295,25.181c0-4.597,3.796-8.393,8.393-8.393h218.23
			c4.597,0,8.393,3.796,8.393,8.393s-3.796,8.393-8.393,8.393h-218.23C138.091,33.575,134.295,29.778,134.295,25.181z
			 M313.763,92.329l-16.787,33.574H206.63l-16.787-33.574H313.763z M209.834,142.689h83.934v67.148h-83.934V142.689z
			 M168.987,260.198c-0.619,0-1.116-0.498-1.116-1.116V227.74c0-0.619,0.498-1.116,1.116-1.116h24.061h117.508h24.067
			c0.614,0,1.116,0.502,1.116,1.116v31.341c0,0.615-0.502,1.116-1.116,1.116h-24.067H193.048H168.987z M209.834,276.984h83.934
			v58.754h-83.934V276.984z M17.903,453.247c-0.619,0-1.116-0.498-1.116-1.116v-98.489c0-0.619,0.498-1.116,1.116-1.116h49.244
			v100.721H17.903z M116.392,486.819H85.051c-0.619,0-1.116-0.498-1.116-1.116V461.64V344.132v-24.066
			c0-0.619,0.498-1.116,1.116-1.116h31.341c0.619,0,1.116,0.498,1.116,1.116v24.032c0,0.011-0.002,0.022-0.002,0.034V461.64
			c0,0.011,0.002,0.022,0.002,0.034v24.029C117.508,486.321,117.011,486.819,116.392,486.819z M369.31,453.247H134.295V352.525
			h58.752h117.508h58.754V453.247z M419.672,485.702c0,0.619-0.498,1.116-1.116,1.116h-31.341c-0.619,0-1.116-0.498-1.116-1.116
			V320.066c0-0.619,0.498-1.116,1.116-1.116h31.341c0.619,0,1.116,0.498,1.116,1.116v24.064v117.508V485.702z M486.82,452.129
			c0,0.619-0.498,1.116-1.116,1.116h-49.244V352.524h49.244c0.619,0,1.116,0.498,1.116,1.116V452.129z"/>
	</g>
</g>
</svg>