<?xml version="1.0" standalone="no"?><!DOCTYPE svg PUBLIC "-//W3C//DTD SVG 1.1//EN" "http://www.w3.org/Graphics/SVG/1.1/DTD/svg11.dtd"><svg t="1686707880120" class="icon" viewBox="0 0 1024 1024" version="1.1" xmlns="http://www.w3.org/2000/svg" p-id="7300" xmlns:xlink="http://www.w3.org/1999/xlink" width="200" height="200"><path d="M477.404 73.361a69.873 69.873 0 0 1 69.873 0l327.468 189.064a69.873 69.873 0 0 1 34.936 60.512v378.126a69.873 69.873 0 0 1-34.936 60.512L547.277 950.64a69.873 69.873 0 0 1-69.873 0L149.937 761.575A69.873 69.873 0 0 1 115 701.063V322.937a69.873 69.873 0 0 1 34.937-60.512zM174.891 351.862v349.201a9.982 9.982 0 0 0 4.991 8.645L483.393 884.94V530.423L174.891 351.862z m674.898 0.003L543.284 528.826v354.961l301.515-174.08a9.982 9.982 0 0 0 4.986-8.32l0.005-0.324-0.001-349.198zM517.332 125.229a9.982 9.982 0 0 0-9.982 0L204.74 299.94l307.216 177.816 307.984-177.815z" p-id="7301"></path></svg>