<?xml version="1.0" ?>
<!-- Uploaded to: SVG Repo, www.svgrepo.com, Generator: SVG Repo Mixer Tools -->
<svg width="800px" height="800px" viewBox="0 0 64 64" data-name="Layer 1" id="Layer_1"
    xmlns="http://www.w3.org/2000/svg">
    <path
        d="M12 21V3M17 15.5V15.5C17 15.2239 16.7761 15 16.5 15L7.5 15C7.22386 15 7 15.2239 7 15.5V15.5C7 15.7761 7.22386 16 7.5 16L16.5 16C16.7761 16 17 15.7761 17 15.5ZM20 8.5V8.5C20 8.22386 19.7761 8 19.5 8L4.5 8C4.22386 8 4 8.22386 4 8.5V8.5C4 8.77614 4.22386 9 4.5 9L19.5 9C19.7761 9 20 8.77614 20 8.5Z"
        stroke="#000000" stroke-width="2" stroke-linecap="round" stroke-linejoin="round"></path>
</svg>