<?xml version="1.0" ?><!-- Uploaded to: SVG Repo, www.svgrepo.com, Generator: SVG Repo Mixer Tools -->
<svg width="800px" height="800px" viewBox="0 0 64 64" data-name="Layer 1" id="Layer_1" xmlns="http://www.w3.org/2000/svg"><defs><style>.cls-1{fill:#838bc5;}.cls-2{fill:#65c8d0;}</style></defs><polygon class="cls-1" points="50 13.75 50 11.75 54.63 9.82 55.37 11.68 50 13.75"/><polygon class="cls-1" points="15 13.75 8.63 11.68 9.37 9.82 14 11.24 15 13.75"/><path class="cls-2" d="M32,49.25c-9,0-16.44-2.29-19.27-5.57a2.83,2.83,0,0,0-.23,1.07,3.3,3.3,0,0,0,.08.61,3.65,3.65,0,0,0,.5,1.12h0C15.19,49.75,23,52.25,32,52.25s16.81-2.5,18.92-5.76h0a3.65,3.65,0,0,0,.5-1.12,3.3,3.3,0,0,0,.08-.61,2.83,2.83,0,0,0-.23-1.07C48.44,47,41,49.25,32,49.25Z"/><path class="cls-2" d="M32,41.25c-9,0-16.44-2.29-19.27-5.57a2.83,2.83,0,0,0-.23,1.07,3.3,3.3,0,0,0,.08.61,3.65,3.65,0,0,0,.5,1.12h0C15.19,41.75,23,44.25,32,44.25s16.81-2.5,18.92-5.76h0a3.65,3.65,0,0,0,.5-1.12,3.3,3.3,0,0,0,.08-.61,2.83,2.83,0,0,0-.23-1.07C48.44,39,41,41.25,32,41.25Z"/><path class="cls-1" d="M32,45.25c-9,0-16.44-2.29-19.27-5.57a2.83,2.83,0,0,0-.23,1.07,3.3,3.3,0,0,0,.08.61,3.65,3.65,0,0,0,.5,1.12h0C15.19,45.75,23,48.25,32,48.25s16.81-2.5,18.92-5.76h0a3.65,3.65,0,0,0,.5-1.12,3.3,3.3,0,0,0,.08-.61,2.83,2.83,0,0,0-.23-1.07C48.44,43,41,45.25,32,45.25Z"/><path class="cls-1" d="M32,53.25c-9,0-16.44-2.29-19.27-5.57a2.83,2.83,0,0,0-.23,1.07,3.3,3.3,0,0,0,.08.61,3.65,3.65,0,0,0,.5,1.12h0C15.19,53.75,23,56.25,32,56.25s16.81-2.5,18.92-5.76h0a3.65,3.65,0,0,0,.5-1.12,3.3,3.3,0,0,0,.08-.61,2.83,2.83,0,0,0-.23-1.07C48.44,51,41,53.25,32,53.25Z"/><path class="cls-2" d="M32,57.25c-9,0-16.44-2.29-19.27-5.57a2.83,2.83,0,0,0-.23,1.07c0,4.07,8.93,7.5,19.5,7.5s19.5-3.43,19.5-7.5a2.83,2.83,0,0,0-.23-1.07C48.44,55,41,57.25,32,57.25Z"/><path class="cls-1" d="M32,37.25c-9,0-16.44-2.29-19.27-5.57a2.83,2.83,0,0,0-.23,1.07,3.3,3.3,0,0,0,.08.61,3.65,3.65,0,0,0,.5,1.12h0C15.19,37.75,23,40.25,32,40.25s16.81-2.5,18.92-5.76h0a3.65,3.65,0,0,0,.5-1.12,3.3,3.3,0,0,0,.08-.61,2.83,2.83,0,0,0-.23-1.07C48.44,35,41,37.25,32,37.25Z"/><path class="cls-1" d="M32,17.25c-10.57,0-19.5,3.43-19.5,7.5a3.3,3.3,0,0,0,.08.61,3.65,3.65,0,0,0,.5,1.12h0C15.19,29.75,23,32.25,32,32.25s16.81-2.5,18.92-5.76h0a3.65,3.65,0,0,0,.5-1.12,3.3,3.3,0,0,0,.08-.61C51.5,20.68,42.57,17.25,32,17.25Z"/><path class="cls-2" d="M32,33.25c-9,0-16.44-2.29-19.27-5.57a2.83,2.83,0,0,0-.23,1.07,3.3,3.3,0,0,0,.08.61,3.65,3.65,0,0,0,.5,1.12h0C15.19,33.75,23,36.25,32,36.25s16.81-2.5,18.92-5.76h0a3.65,3.65,0,0,0,.5-1.12,3.3,3.3,0,0,0,.08-.61,2.83,2.83,0,0,0-.23-1.07C48.44,31,41,33.25,32,33.25Z"/><rect class="cls-2" height="18" width="6" x="29" y="7.75"/><path class="cls-1" d="M33,7.75H31a4,4,0,0,1,4-4v2A2,2,0,0,0,33,7.75Z"/><path class="cls-2" d="M41,28.75s-1-12,12-14l-3-5c-13,2-12,14-12,14Z"/><path class="cls-2" d="M23,28.75s1-12-12-14l3-5c13,2,12,14,12,14Z"/></svg>