<?xml version="1.0" encoding="utf-8"?>
<!-- Uploaded to: SVG Repo, www.svgrepo.com, Generator: SVG Repo Mixer Tools -->
<svg fill="#000000" width="800px" height="800px" viewBox="-1.41 0 16 16" xmlns="http://www.w3.org/2000/svg">
  <g id="electricity-measurement-16px" transform="translate(0)">
    <path id="Path_181" data-name="Path 181" d="M-17.975,9.342a.5.5,0,0,1,.633-.316l.842.28V4.847A.985.985,0,0,1-17,4a1,1,0,0,1,1-1,1,1,0,0,1,1,1,.985.985,0,0,1-.5.847V9.5a.516.516,0,0,1-.026.131l1.184.4a.5.5,0,0,1,.317.632A.5.5,0,0,1-14.5,11a.484.484,0,0,1-.158-.026l-3-1A.5.5,0,0,1-17.975,9.342ZM-13.5,15h-2V12.694l.842.28A.484.484,0,0,0-14.5,13a.5.5,0,0,0,.475-.342.5.5,0,0,0-.317-.632l-3-1a.5.5,0,0,0-.633.316.5.5,0,0,0,.317.632l1.184.4a.516.516,0,0,0-.026.131V15h-2a.5.5,0,0,0-.5.5.5.5,0,0,0,.5.5h5a.5.5,0,0,0,.5-.5A.5.5,0,0,0-13.5,15Zm.3-12.9a.5.5,0,0,0-.7.1.5.5,0,0,0,.1.7A1.362,1.362,0,0,1-13.25,4a1.362,1.362,0,0,1-.55,1.1.5.5,0,0,0-.1.7.5.5,0,0,0,.4.2.5.5,0,0,0,.3-.1A2.357,2.357,0,0,0-12.25,4,2.357,2.357,0,0,0-13.2,2.1ZM-11.171.124a.5.5,0,0,0-.705.047.5.5,0,0,0,.047.7A4.155,4.155,0,0,1-10.412,4a4.155,4.155,0,0,1-1.417,3.124.5.5,0,0,0-.047.7A.5.5,0,0,0-11.5,8a.5.5,0,0,0,.329-.124A5.15,5.15,0,0,0-9.412,4,5.15,5.15,0,0,0-11.171.124ZM-18.5,6a.5.5,0,0,0,.4-.2.5.5,0,0,0-.1-.7A1.362,1.362,0,0,1-18.75,4a1.362,1.362,0,0,1,.55-1.1.5.5,0,0,0,.1-.7.5.5,0,0,0-.7-.1A2.357,2.357,0,0,0-19.75,4a2.357,2.357,0,0,0,.95,1.9A.5.5,0,0,0-18.5,6ZM-20.124.171a.5.5,0,0,0-.7-.047A5.15,5.15,0,0,0-22.588,4a5.15,5.15,0,0,0,1.759,3.876A.5.5,0,0,0-20.5,8a.5.5,0,0,0,.376-.171.5.5,0,0,0-.047-.7A4.155,4.155,0,0,1-21.588,4,4.155,4.155,0,0,1-20.171.876.5.5,0,0,0-20.124.171Z" transform="translate(22.588 0.001)"/>
  </g>
</svg>