<?xml version="1.0" standalone="no"?><!DOCTYPE svg PUBLIC "-//W3C//DTD SVG 1.1//EN" "http://www.w3.org/Graphics/SVG/1.1/DTD/svg11.dtd"><svg t="1686214343647" class="icon" viewBox="0 0 1024 1024" version="1.1" xmlns="http://www.w3.org/2000/svg" p-id="784" xmlns:xlink="http://www.w3.org/1999/xlink" width="200" height="200"><path d="M362.666667 643.050667a10.154667 10.154667 0 0 1 10.154666-10.154667h272.256a10.154667 10.154667 0 0 1 10.154667 10.154667 10.154667 10.154667 0 0 1-10.154667 10.154666h-272.256a10.154667 10.154667 0 0 1-10.154666-10.154666z" p-id="785"></path><path d="M362.666667 496.768a10.154667 10.154667 0 0 1 10.154666-10.154667h272.256a10.154667 10.154667 0 0 1 10.154667 10.154667 10.154667 10.154667 0 0 1-10.154667 10.154667h-272.256a10.154667 10.154667 0 0 1-10.154666-10.154667z" p-id="786"></path><path d="M435.818667 714.837333m10.154666 0l125.973334 0q10.154667 0 10.154666 10.154667l0 0q0 10.154667-10.154666 10.154667l-125.973334 0q-10.154667 0-10.154666-10.154667l0 0q0-10.154667 10.154666-10.154667Z" p-id="787"></path><path d="M497.429333 632.896m10.154667 0l0 0q10.154667 0 10.154667 10.154667l0 81.962666q0 10.154667-10.154667 10.154667l0 0q-10.154667 0-10.154667-10.154667l0-81.962666q0-10.154667 10.154667-10.154667Z" p-id="788"></path><path d="M497.429333 234.666667m10.154667 0l0 0q10.154667 0 10.154667 10.154666l0 251.946667q0 10.154667-10.154667 10.154667l0 0q-10.154667 0-10.154667-10.154667l0-251.946667q0-10.154667 10.154667-10.154666Z" p-id="789"></path><path d="M463.744 769.024m10.154667 0l70.101333 0q10.154667 0 10.154667 10.154667l0 0q0 10.154667-10.154667 10.154666l-70.101333 0q-10.154667 0-10.154667-10.154666l0 0q0-10.154667 10.154667-10.154667Z" p-id="790"></path></svg>