<?xml version="1.0" standalone="no"?><!DOCTYPE svg PUBLIC "-//W3C//DTD SVG 1.1//EN" "http://www.w3.org/Graphics/SVG/1.1/DTD/svg11.dtd"><svg t="1686214397399" class="icon" viewBox="0 0 1024 1024" version="1.1" xmlns="http://www.w3.org/2000/svg" p-id="1601" xmlns:xlink="http://www.w3.org/1999/xlink" width="200" height="200"><path d="M170.67 85.33v853.33h682.67V85.33H170.67z m597.33 768H256v-42.67h512v42.67z m0-128H256V298.67h512v426.66z m0-512H256v-42.67h512v42.67z" p-id="1602"></path><path d="M395.21 489.85h64.41c3.19 0 5.59 2.77 4.97 5.75l-40.4 192.9c-0.01 0.05 0.03 0.09 0.07 0.09 0.02 0 0.04-0.01 0.05-0.02l214.98-256.48c1.68-2.01 0.18-4.97-2.52-4.97h-81.33c-3.19 0-5.19-3.28-3.59-5.91l46.11-75.86c1.08-1.78-0.27-4.01-2.44-4.01H479.48c-4.94 0-9.46 2.63-11.7 6.82l-74.37 138.9c-0.68 1.27 0.29 2.79 1.8 2.79z" p-id="1603"></path></svg>